<svg width="48" height="48" viewBox="0 0 48 48" fill="none" xmlns="http://www.w3.org/2000/svg">
  <rect width="48" height="48" rx="8" fill="#8B5CF6"/>
  <path d="M24 12C17.373 12 12 17.373 12 24C12 30.627 17.373 36 24 36C30.627 36 36 30.627 36 24C36 17.373 30.627 12 24 12ZM24 18C26.209 18 28 19.791 28 22C28 24.209 26.209 26 24 26C21.791 26 20 24.209 20 22C20 19.791 21.791 18 24 18ZM24 30C21.791 30 20 28.209 20 26C20 23.791 21.791 22 24 22C26.209 22 28 23.791 28 26C28 28.209 26.209 30 24 30Z" fill="white"/>
  <path d="M16 16L20 20M32 16L28 20M16 32L20 28M32 32L28 28" stroke="white" stroke-width="2" stroke-linecap="round"/>
</svg>
